<?xml version="1.0" encoding="utf-8"?>
<svg width="1000" height="800" viewBox="0 0 1000 800" xmlns="http://www.w3.org/2000/svg" style="background-color:#fff">
  <defs>
    <marker id="arrow" markerWidth="10" markerHeight="10" refX="6" refY="3" orient="auto" markerUnits="strokeWidth">
      <path d="M0,0 L0,6 L6,3 z" fill="#333"/>
    </marker>
  </defs>
  <text x="500" y="40" text-anchor="middle" font-family="Arial" font-size="22" fill="#333" font-weight="bold" style="white-space: pre;">
    Multi-Agent Snow-Removal Management System
  </text>
  <rect x="672.375" y="75.09" width="200" height="100" fill="#f9f9f9" stroke="#bbb" stroke-width="1"/>
  <text x="682.375" y="95.09" font-family="Arial" font-size="14" font-weight="bold" style="white-space: pre; font-size: 14px;">Legend</text>
  <circle cx="682.375" cy="120.09" r="5" fill="#000"/>
  <text x="697.375" y="125.09" font-family="Arial" font-size="12" style="white-space: pre; font-size: 12px;">
    Data Flow / Messages
  </text>
  <text x="682.375" y="145.09" font-family="Arial" font-size="12" style="white-space: pre; font-size: 12px;">
    Rectangles = Agents / DB
  </text>
  <text x="682.375" y="160.09" font-family="Arial" font-size="12" style="white-space: pre; font-size: 12px;">
    Ellipses = External Data / Users
  </text>
  <ellipse cx="150" cy="120" rx="80" ry="30" fill="#cce5ff" stroke="#333" stroke-width="1"/>
  <text x="150" y="125" text-anchor="middle" font-family="Arial" font-size="12" fill="#000" style="white-space: pre;">
    Weather APIs
  </text>
  <ellipse cx="350" cy="120" rx="80" ry="30" fill="#cce5ff" stroke="#333" stroke-width="1"/>
  <text x="350" y="125" text-anchor="middle" font-family="Arial" font-size="12" fill="#000" style="white-space: pre;" transform="matrix(1, 0, 0, 1, -1.770264, -12.169855)"><tspan x="350" dy="1em">​</tspan>    Traffic Data APIs</text>
  <ellipse cx="550" cy="120" rx="95" ry="30" fill="#cce5ff" stroke="#333" stroke-width="1"/>
  <text x="550" y="125" text-anchor="middle" font-family="Arial" font-size="12" fill="#000" style="white-space: pre;">
    Municipal Regulations
  </text>
  <rect x="80" y="220" width="140" height="50" rx="10" ry="10" fill="#79c2d0" stroke="#333" stroke-width="1"/>
  <text x="90" y="250" font-family="Arial" font-size="12" fill="#000" style="white-space: pre;">
    Agent Weather
  </text>
  <rect x="80" y="320" width="160" height="50" rx="10" ry="10" fill="#f2a30f" stroke="#333" stroke-width="1"/>
  <text x="75.084" y="349.997" font-family="Arial" font-size="12" fill="#000" style="white-space: pre; font-size: 12px;">
    Agent Stock &amp; Resources
  </text>
  <rect x="320" y="220" width="190" height="50" rx="10" ry="10" fill="#a0d568" stroke="#333" stroke-width="1"/>
  <text x="319.592" y="249.567" font-family="Arial" font-size="12" fill="#000" style="white-space: pre; font-size: 12px;">
    Agent Routing &amp; Optimization
  </text>
  <rect x="320" y="320" width="190" height="50" rx="10" ry="10" fill="#ffdd57" stroke="#333" stroke-width="1"/>
  <text x="345.85" y="347.794" font-family="Arial" font-size="12" fill="#000" style="white-space: pre; font-size: 12px;">
    Agent Equipment
  </text>
  <rect x="600" y="220" width="220" height="50" rx="10" ry="10" fill="#f98bab" stroke="#333" stroke-width="1"/>
  <text x="610" y="250" font-family="Arial" font-size="12" fill="#000" style="white-space: pre;">
    Agent Global Planification
  </text>
  <rect x="600" y="320" width="220" height="50" rx="10" ry="10" fill="#dfb3e6" stroke="#333" stroke-width="1"/>
  <text x="610" y="350" font-family="Arial" font-size="12" fill="#000" style="white-space: pre;">
    Agent Notifications &amp; Alerts
  </text>
  <rect x="600" y="420" width="220" height="50" rx="10" ry="10" fill="#b7b7b7" stroke="#333" stroke-width="1"/>
  <text x="628.078" y="448.321" font-family="Arial" font-size="12" fill="#000" style="white-space: pre; font-size: 12px;">
    Agent Control &amp; Ecology
  </text>
  <rect x="200" y="530" width="220" height="60" fill="#eee" stroke="#333" stroke-width="1"/>
  <text x="210" y="555" font-family="Arial" font-size="12" fill="#000" font-weight="bold" style="white-space: pre;">
    Knowledge Graph / DB
  </text>
  <text x="210" y="570" font-family="Arial" font-size="12" fill="#000" style="white-space: pre;">
    - Road Data, Depot Info
  </text>
  <text x="210" y="585" font-family="Arial" font-size="12" fill="#000" style="white-space: pre;">
    - Equipment, Historical Records
  </text>
  <ellipse cx="546.47" cy="558.172" rx="90" ry="30" fill="#fff7e6" stroke="#333" stroke-width="1"/>
  <text x="546.47" y="563.172" text-anchor="middle" font-family="Arial" font-size="12" fill="#000" style="white-space: pre; font-size: 12px;">
    Operators Dashboard
  </text>
  <ellipse cx="738.37" cy="556.371" rx="90" ry="30" fill="#fff7e6" stroke="#333" stroke-width="1"/>
  <text x="734.357" y="557.028" text-anchor="middle" font-family="Arial" font-size="12" fill="#000" style="white-space: pre; font-size: 12px;">
    Residents Portal
  </text>
  <line x1="150" y1="150" x2="150" y2="220" stroke="#333" stroke-width="2" marker-end="url(#arrow)"/>
  <line x1="350" y1="150" x2="415" y2="220" stroke="#333" stroke-width="2" marker-end="url(#arrow)"/>
  <line x1="550" y1="150" x2="680" y2="220" stroke="#333" stroke-width="2" marker-end="url(#arrow)"/>
  <line x1="219.516" y1="260.54" x2="599.516" y2="260.54" stroke="#333" stroke-width="2" marker-end="url(#arrow)"/>
  <line x1="241.042" y1="357.6" x2="601.042" y2="357.6" stroke="#333" stroke-width="2" marker-end="url(#arrow)"/>
  <line x1="510" y1="245" x2="600" y2="245" stroke="#333" stroke-width="2" marker-end="url(#arrow)" stroke-dasharray="4,4"/>
  <line x1="510" y1="345" x2="600" y2="345" stroke="#333" stroke-width="2" marker-end="url(#arrow)" stroke-dasharray="4,4"/>
  <line x1="710" y1="270" x2="710" y2="320" stroke="#333" stroke-width="2" marker-end="url(#arrow)"/>
  <line x1="782.555" y1="268.235" x2="782.555" y2="418.235" stroke="#333" stroke-width="2" marker-end="url(#arrow)" stroke-dasharray="4,4"/>
  <line x1="791.239" y1="254.781" x2="798.721" y2="420.647" stroke="#333" stroke-width="2" marker-end="url(#arrow)" style="transform-origin: 794.978px 337.712px;" transform="matrix(-1, 0, 0, -1, -0.000018, -0.000006)"/>
  <line x1="554.519" y1="537.152" x2="670.22" y2="368.921" stroke="#333" stroke-width="2" marker-end="url(#arrow)" style="transform-box: fill-box; transform-origin: 50% 50%;" transform="matrix(-1, 0, 0, -1, -0.000113, -0.000068)"/>
  <line x1="712.308" y1="367.851" x2="754.064" y2="537.781" stroke="#333" stroke-width="2" marker-end="url(#arrow)" stroke-dasharray="4,4" style=""/>
  <line x1="150" y1="270" x2="200" y2="530" stroke="#333" stroke-width="2" marker-end="url(#arrow)"/>
  <line x1="200" y1="530" x2="150" y2="270" stroke="#333" stroke-width="2" marker-end="url(#arrow)" stroke-dasharray="4,4"/>
  <line x1="208.163" y1="534.198" x2="183.898" y2="366.004" stroke="#333" stroke-width="2" marker-end="url(#arrow)" style="transform-box: fill-box; transform-origin: 50% 50%;" transform="matrix(-1, 0, 0, -1, 0.000025, -0.000006)"/>
  <line x1="195.108" y1="370.113" x2="215.795" y2="534.508" stroke="#333" stroke-width="2" marker-end="url(#arrow)" stroke-dasharray="4,4" style="transform-box: fill-box; transform-origin: 50% 50%;" transform="matrix(-1, 0, 0, -1, -0.000007, 0.000039)"/>
  <line x1="415" y1="270" x2="300" y2="530" stroke="#333" stroke-width="2" marker-end="url(#arrow)"/>
  <line x1="300" y1="530" x2="415" y2="270" stroke="#333" stroke-width="2" marker-end="url(#arrow)" stroke-dasharray="4,4"/>
  <line x1="415" y1="370" x2="300" y2="530" stroke="#333" stroke-width="2" marker-end="url(#arrow)"/>
  <line x1="300" y1="530" x2="415" y2="370" stroke="#333" stroke-width="2" marker-end="url(#arrow)" stroke-dasharray="4,4"/>
  <line x1="705.594" y1="257.548" x2="415.594" y2="542.548" stroke="#333" stroke-width="2" marker-end="url(#arrow)"/>
  <line x1="416.889" y1="525.651" x2="676.103" y2="263.314" stroke="#333" stroke-width="2" marker-end="url(#arrow)" stroke-dasharray="4,4" style=""/>
</svg>