<?xml version="1.0" encoding="utf-8" standalone="no"?>
<!DOCTYPE svg PUBLIC "-//W3C//DTD SVG 1.1//EN"
  "http://www.w3.org/Graphics/SVG/1.1/DTD/svg11.dtd">
<svg xmlns:xlink="http://www.w3.org/1999/xlink" width="684pt" height="457.92pt" viewBox="0 0 684 457.92" xmlns="http://www.w3.org/2000/svg" version="1.1">
 <metadata>
  <rdf:RDF xmlns:dc="http://purl.org/dc/elements/1.1/" xmlns:cc="http://creativecommons.org/ns#" xmlns:rdf="http://www.w3.org/1999/02/22-rdf-syntax-ns#">
   <cc:Work>
    <dc:type rdf:resource="http://purl.org/dc/dcmitype/StillImage"/>
    <dc:date>2025-02-01T10:41:06.005184</dc:date>
    <dc:format>image/svg+xml</dc:format>
    <dc:creator>
     <cc:Agent>
      <dc:title>Matplotlib v3.10.0, https://matplotlib.org/</dc:title>
     </cc:Agent>
    </dc:creator>
   </cc:Work>
  </rdf:RDF>
 </metadata>
 <defs>
  <style type="text/css">*{stroke-linejoin: round; stroke-linecap: butt}</style>
 </defs>
 <g id="figure_1">
  <g id="patch_1">
   <path d="M 0 457.92 
L 684 457.92 
L 684 0 
L 0 0 
z
" style="fill: #ffffff"/>
  </g>
  <g id="axes_1">
   <g id="patch_2">
    <path d="M 7.2 450.72 
L 676.8 450.72 
L 676.8 7.2 
L 7.2 7.2 
z
" style="fill: #ffffff"/>
   </g>
   <g id="patch_3">
    <path d="M 556.143492 105.149099 
Q 497.353918 139.786445 439.527621 173.856253 
" clip-path="url(#p2474d7185b)" style="fill: none; stroke: #808080; stroke-linecap: round"/>
    <path d="M 448.450748 173.241601 
L 439.527621 173.856253 
L 444.389776 166.34896 
z
" clip-path="url(#p2474d7185b)" style="fill: #808080; stroke: #808080; stroke-linecap: round"/>
   </g>
   <g id="patch_4">
    <path d="M 523.577462 250.396882 
Q 549.20226 328.076389 574.476808 404.694139 
" clip-path="url(#p2474d7185b)" style="fill: none; stroke: #808080; stroke-linecap: round"/>
    <path d="M 575.769273 395.843742 
L 574.476808 404.694139 
L 568.171969 398.349929 
z
" clip-path="url(#p2474d7185b)" style="fill: #808080; stroke: #808080; stroke-linecap: round"/>
   </g>
   <g id="patch_5">
    <path d="M 106.250561 90.476996 
Q 86.346611 142.474101 66.842351 193.427056 
" clip-path="url(#p2474d7185b)" style="fill: none; stroke: #808080; stroke-linecap: round"/>
    <path d="M 73.437959 187.385703 
L 66.842351 193.427056 
L 65.966633 184.525757 
z
" clip-path="url(#p2474d7185b)" style="fill: #808080; stroke: #808080; stroke-linecap: round"/>
   </g>
   <g id="patch_6">
    <path d="M 166.473108 400.247001 
Q 227.569916 404.012167 287.550807 407.708563 
" clip-path="url(#p2474d7185b)" style="fill: none; stroke: #808080; stroke-linecap: round"/>
    <path d="M 279.811994 403.224061 
L 287.550807 407.708563 
L 279.319917 411.208913 
z
" clip-path="url(#p2474d7185b)" style="fill: #808080; stroke: #808080; stroke-linecap: round"/>
   </g>
   <g id="patch_7">
    <path d="M 436.321902 185.731064 
Q 494.734164 263.111909 552.472829 339.600417 
" clip-path="url(#p2474d7185b)" style="fill: none; stroke: #808080; stroke-linecap: round"/>
    <path d="M 550.845489 330.805432 
L 552.472829 339.600417 
L 544.460437 335.625298 
z
" clip-path="url(#p2474d7185b)" style="fill: #808080; stroke: #808080; stroke-linecap: round"/>
   </g>
   <g id="matplotlib.axis_1">
    <g id="xtick_1"/>
    <g id="xtick_2"/>
    <g id="xtick_3"/>
    <g id="xtick_4"/>
    <g id="xtick_5"/>
    <g id="xtick_6"/>
    <g id="xtick_7"/>
    <g id="xtick_8"/>
   </g>
   <g id="matplotlib.axis_2">
    <g id="ytick_1"/>
    <g id="ytick_2"/>
    <g id="ytick_3"/>
    <g id="ytick_4"/>
    <g id="ytick_5"/>
    <g id="ytick_6"/>
    <g id="ytick_7"/>
    <g id="ytick_8"/>
    <g id="ytick_9"/>
   </g>
   <g id="PathCollection_1">
    <defs>
     <path id="C0_0_040b3eb9bb" d="M 0 22.36068 
C 5.930122 22.36068 11.618159 20.004617 15.811388 15.811388 
C 20.004617 11.618159 22.36068 5.930122 22.36068 -0 
C 22.36068 -5.930122 20.004617 -11.618159 15.811388 -15.811388 
C 11.618159 -20.004617 5.930122 -22.36068 0 -22.36068 
C -5.930122 -22.36068 -11.618159 -20.004617 -15.811388 -15.811388 
C -20.004617 -11.618159 -22.36068 -5.930122 -22.36068 0 
C -22.36068 5.930122 -20.004617 11.618159 -15.811388 15.811388 
C -11.618159 20.004617 -5.930122 22.36068 0 22.36068 
z
"/>
    </defs>
    <g clip-path="url(#p2474d7185b)">
     <use xlink:href="#C0_0_040b3eb9bb" x="646.363636" y="27.36" style="fill: #add8e6; stroke: #add8e6"/>
    </g>
    <g clip-path="url(#p2474d7185b)">
     <use xlink:href="#C0_0_040b3eb9bb" x="563.603873" y="100.753629" style="fill: #add8e6; stroke: #add8e6"/>
    </g>
    <g clip-path="url(#p2474d7185b)">
     <use xlink:href="#C0_0_040b3eb9bb" x="520.864581" y="242.173004" style="fill: #add8e6; stroke: #add8e6"/>
    </g>
    <g clip-path="url(#p2474d7185b)">
     <use xlink:href="#C0_0_040b3eb9bb" x="109.345951" y="82.390595" style="fill: #add8e6; stroke: #add8e6"/>
    </g>
    <g clip-path="url(#p2474d7185b)">
     <use xlink:href="#C0_0_040b3eb9bb" x="157.827751" y="399.71422" style="fill: #add8e6; stroke: #add8e6"/>
    </g>
    <g clip-path="url(#p2474d7185b)">
     <use xlink:href="#C0_0_040b3eb9bb" x="431.104272" y="178.819079" style="fill: #90ee90; stroke: #90ee90"/>
    </g>
    <g clip-path="url(#p2474d7185b)">
     <use xlink:href="#C0_0_040b3eb9bb" x="558.362422" y="347.402574" style="fill: #90ee90; stroke: #90ee90"/>
    </g>
    <g clip-path="url(#p2474d7185b)">
     <use xlink:href="#C0_0_040b3eb9bb" x="577.54018" y="413.980505" style="fill: #90ee90; stroke: #90ee90"/>
    </g>
    <g clip-path="url(#p2474d7185b)">
     <use xlink:href="#C0_0_040b3eb9bb" x="63.346069" y="202.560746" style="fill: #90ee90; stroke: #90ee90"/>
    </g>
    <g clip-path="url(#p2474d7185b)">
     <use xlink:href="#C0_0_040b3eb9bb" x="297.311275" y="408.310064" style="fill: #90ee90; stroke: #90ee90"/>
    </g>
   </g>
   <g id="patch_8">
    <path d="M 7.2 450.72 
L 7.2 7.2 
" style="fill: none; stroke: #000000; stroke-width: 0.8; stroke-linejoin: miter; stroke-linecap: square"/>
   </g>
   <g id="patch_9">
    <path d="M 676.8 450.72 
L 676.8 7.2 
" style="fill: none; stroke: #000000; stroke-width: 0.8; stroke-linejoin: miter; stroke-linecap: square"/>
   </g>
   <g id="patch_10">
    <path d="M 7.2 450.72 
L 676.8 450.72 
" style="fill: none; stroke: #000000; stroke-width: 0.8; stroke-linejoin: miter; stroke-linecap: square"/>
   </g>
   <g id="patch_11">
    <path d="M 7.2 7.2 
L 676.8 7.2 
" style="fill: none; stroke: #000000; stroke-width: 0.8; stroke-linejoin: miter; stroke-linecap: square"/>
   </g>
   <g id="text_1">
    <g clip-path="url(#p2474d7185b)">
     <!-- global_planification -->
     <g transform="translate(602.234261 29.45625) scale(0.08 -0.08)">
      <defs>
       <path id="DejaVuSans-Bold-67" d="M 2919 594 
Q 2688 288 2409 144 
Q 2131 0 1766 0 
Q 1125 0 706 504 
Q 288 1009 288 1791 
Q 288 2575 706 3076 
Q 1125 3578 1766 3578 
Q 2131 3578 2409 3434 
Q 2688 3291 2919 2981 
L 2919 3500 
L 4044 3500 
L 4044 353 
Q 4044 -491 3511 -936 
Q 2978 -1381 1966 -1381 
Q 1638 -1381 1331 -1331 
Q 1025 -1281 716 -1178 
L 716 -306 
Q 1009 -475 1290 -558 
Q 1572 -641 1856 -641 
Q 2406 -641 2662 -400 
Q 2919 -159 2919 353 
L 2919 594 
z
M 2181 2772 
Q 1834 2772 1640 2515 
Q 1447 2259 1447 1791 
Q 1447 1309 1634 1061 
Q 1822 813 2181 813 
Q 2531 813 2725 1069 
Q 2919 1325 2919 1791 
Q 2919 2259 2725 2515 
Q 2531 2772 2181 2772 
z
" transform="scale(0.015625)"/>
       <path id="DejaVuSans-Bold-6c" d="M 538 4863 
L 1656 4863 
L 1656 0 
L 538 0 
L 538 4863 
z
" transform="scale(0.015625)"/>
       <path id="DejaVuSans-Bold-6f" d="M 2203 2784 
Q 1831 2784 1636 2517 
Q 1441 2250 1441 1747 
Q 1441 1244 1636 976 
Q 1831 709 2203 709 
Q 2569 709 2762 976 
Q 2956 1244 2956 1747 
Q 2956 2250 2762 2517 
Q 2569 2784 2203 2784 
z
M 2203 3584 
Q 3106 3584 3614 3096 
Q 4122 2609 4122 1747 
Q 4122 884 3614 396 
Q 3106 -91 2203 -91 
Q 1297 -91 786 396 
Q 275 884 275 1747 
Q 275 2609 786 3096 
Q 1297 3584 2203 3584 
z
" transform="scale(0.015625)"/>
       <path id="DejaVuSans-Bold-62" d="M 2400 722 
Q 2759 722 2948 984 
Q 3138 1247 3138 1747 
Q 3138 2247 2948 2509 
Q 2759 2772 2400 2772 
Q 2041 2772 1848 2508 
Q 1656 2244 1656 1747 
Q 1656 1250 1848 986 
Q 2041 722 2400 722 
z
M 1656 2988 
Q 1888 3294 2169 3439 
Q 2450 3584 2816 3584 
Q 3463 3584 3878 3070 
Q 4294 2556 4294 1747 
Q 4294 938 3878 423 
Q 3463 -91 2816 -91 
Q 2450 -91 2169 54 
Q 1888 200 1656 506 
L 1656 0 
L 538 0 
L 538 4863 
L 1656 4863 
L 1656 2988 
z
" transform="scale(0.015625)"/>
       <path id="DejaVuSans-Bold-61" d="M 2106 1575 
Q 1756 1575 1579 1456 
Q 1403 1338 1403 1106 
Q 1403 894 1545 773 
Q 1688 653 1941 653 
Q 2256 653 2472 879 
Q 2688 1106 2688 1447 
L 2688 1575 
L 2106 1575 
z
M 3816 1997 
L 3816 0 
L 2688 0 
L 2688 519 
Q 2463 200 2181 54 
Q 1900 -91 1497 -91 
Q 953 -91 614 226 
Q 275 544 275 1050 
Q 275 1666 698 1953 
Q 1122 2241 2028 2241 
L 2688 2241 
L 2688 2328 
Q 2688 2594 2478 2717 
Q 2269 2841 1825 2841 
Q 1466 2841 1156 2769 
Q 847 2697 581 2553 
L 581 3406 
Q 941 3494 1303 3539 
Q 1666 3584 2028 3584 
Q 2975 3584 3395 3211 
Q 3816 2838 3816 1997 
z
" transform="scale(0.015625)"/>
       <path id="DejaVuSans-Bold-5f" d="M 3200 -916 
L 3200 -1509 
L 0 -1509 
L 0 -916 
L 3200 -916 
z
" transform="scale(0.015625)"/>
       <path id="DejaVuSans-Bold-70" d="M 1656 506 
L 1656 -1331 
L 538 -1331 
L 538 3500 
L 1656 3500 
L 1656 2988 
Q 1888 3294 2169 3439 
Q 2450 3584 2816 3584 
Q 3463 3584 3878 3070 
Q 4294 2556 4294 1747 
Q 4294 938 3878 423 
Q 3463 -91 2816 -91 
Q 2450 -91 2169 54 
Q 1888 200 1656 506 
z
M 2400 2772 
Q 2041 2772 1848 2508 
Q 1656 2244 1656 1747 
Q 1656 1250 1848 986 
Q 2041 722 2400 722 
Q 2759 722 2948 984 
Q 3138 1247 3138 1747 
Q 3138 2247 2948 2509 
Q 2759 2772 2400 2772 
z
" transform="scale(0.015625)"/>
       <path id="DejaVuSans-Bold-6e" d="M 4056 2131 
L 4056 0 
L 2931 0 
L 2931 347 
L 2931 1631 
Q 2931 2084 2911 2256 
Q 2891 2428 2841 2509 
Q 2775 2619 2662 2680 
Q 2550 2741 2406 2741 
Q 2056 2741 1856 2470 
Q 1656 2200 1656 1722 
L 1656 0 
L 538 0 
L 538 3500 
L 1656 3500 
L 1656 2988 
Q 1909 3294 2193 3439 
Q 2478 3584 2822 3584 
Q 3428 3584 3742 3212 
Q 4056 2841 4056 2131 
z
" transform="scale(0.015625)"/>
       <path id="DejaVuSans-Bold-69" d="M 538 3500 
L 1656 3500 
L 1656 0 
L 538 0 
L 538 3500 
z
M 538 4863 
L 1656 4863 
L 1656 3950 
L 538 3950 
L 538 4863 
z
" transform="scale(0.015625)"/>
       <path id="DejaVuSans-Bold-66" d="M 2841 4863 
L 2841 4128 
L 2222 4128 
Q 1984 4128 1890 4042 
Q 1797 3956 1797 3744 
L 1797 3500 
L 2753 3500 
L 2753 2700 
L 1797 2700 
L 1797 0 
L 678 0 
L 678 2700 
L 122 2700 
L 122 3500 
L 678 3500 
L 678 3744 
Q 678 4316 997 4589 
Q 1316 4863 1984 4863 
L 2841 4863 
z
" transform="scale(0.015625)"/>
       <path id="DejaVuSans-Bold-63" d="M 3366 3391 
L 3366 2478 
Q 3138 2634 2908 2709 
Q 2678 2784 2431 2784 
Q 1963 2784 1702 2511 
Q 1441 2238 1441 1747 
Q 1441 1256 1702 982 
Q 1963 709 2431 709 
Q 2694 709 2930 787 
Q 3166 866 3366 1019 
L 3366 103 
Q 3103 6 2833 -42 
Q 2563 -91 2291 -91 
Q 1344 -91 809 395 
Q 275 881 275 1747 
Q 275 2613 809 3098 
Q 1344 3584 2291 3584 
Q 2566 3584 2833 3536 
Q 3100 3488 3366 3391 
z
" transform="scale(0.015625)"/>
       <path id="DejaVuSans-Bold-74" d="M 1759 4494 
L 1759 3500 
L 2913 3500 
L 2913 2700 
L 1759 2700 
L 1759 1216 
Q 1759 972 1856 886 
Q 1953 800 2241 800 
L 2816 800 
L 2816 0 
L 1856 0 
Q 1194 0 917 276 
Q 641 553 641 1216 
L 641 2700 
L 84 2700 
L 84 3500 
L 641 3500 
L 641 4494 
L 1759 4494 
z
" transform="scale(0.015625)"/>
      </defs>
      <use xlink:href="#DejaVuSans-Bold-67"/>
      <use xlink:href="#DejaVuSans-Bold-6c" transform="translate(71.582031 0)"/>
      <use xlink:href="#DejaVuSans-Bold-6f" transform="translate(105.859375 0)"/>
      <use xlink:href="#DejaVuSans-Bold-62" transform="translate(174.560547 0)"/>
      <use xlink:href="#DejaVuSans-Bold-61" transform="translate(246.142578 0)"/>
      <use xlink:href="#DejaVuSans-Bold-6c" transform="translate(313.623047 0)"/>
      <use xlink:href="#DejaVuSans-Bold-5f" transform="translate(347.900391 0)"/>
      <use xlink:href="#DejaVuSans-Bold-70" transform="translate(397.900391 0)"/>
      <use xlink:href="#DejaVuSans-Bold-6c" transform="translate(469.482422 0)"/>
      <use xlink:href="#DejaVuSans-Bold-61" transform="translate(503.759766 0)"/>
      <use xlink:href="#DejaVuSans-Bold-6e" transform="translate(571.240234 0)"/>
      <use xlink:href="#DejaVuSans-Bold-69" transform="translate(642.431641 0)"/>
      <use xlink:href="#DejaVuSans-Bold-66" transform="translate(676.708984 0)"/>
      <use xlink:href="#DejaVuSans-Bold-69" transform="translate(720.214844 0)"/>
      <use xlink:href="#DejaVuSans-Bold-63" transform="translate(754.492188 0)"/>
      <use xlink:href="#DejaVuSans-Bold-61" transform="translate(813.769531 0)"/>
      <use xlink:href="#DejaVuSans-Bold-74" transform="translate(881.25 0)"/>
      <use xlink:href="#DejaVuSans-Bold-69" transform="translate(929.052734 0)"/>
      <use xlink:href="#DejaVuSans-Bold-6f" transform="translate(963.330078 0)"/>
      <use xlink:href="#DejaVuSans-Bold-6e" transform="translate(1032.03125 0)"/>
     </g>
    </g>
   </g>
   <g id="text_2">
    <g clip-path="url(#p2474d7185b)">
     <!-- weather_monitor -->
     <g transform="translate(525.283248 102.849879) scale(0.08 -0.08)">
      <defs>
       <path id="DejaVuSans-Bold-77" d="M 225 3500 
L 1313 3500 
L 1900 1088 
L 2491 3500 
L 3425 3500 
L 4013 1113 
L 4603 3500 
L 5691 3500 
L 4769 0 
L 3547 0 
L 2956 2406 
L 2369 0 
L 1147 0 
L 225 3500 
z
" transform="scale(0.015625)"/>
       <path id="DejaVuSans-Bold-65" d="M 4031 1759 
L 4031 1441 
L 1416 1441 
Q 1456 1047 1700 850 
Q 1944 653 2381 653 
Q 2734 653 3104 758 
Q 3475 863 3866 1075 
L 3866 213 
Q 3469 63 3072 -14 
Q 2675 -91 2278 -91 
Q 1328 -91 801 392 
Q 275 875 275 1747 
Q 275 2603 792 3093 
Q 1309 3584 2216 3584 
Q 3041 3584 3536 3087 
Q 4031 2591 4031 1759 
z
M 2881 2131 
Q 2881 2450 2695 2645 
Q 2509 2841 2209 2841 
Q 1884 2841 1681 2658 
Q 1478 2475 1428 2131 
L 2881 2131 
z
" transform="scale(0.015625)"/>
       <path id="DejaVuSans-Bold-68" d="M 4056 2131 
L 4056 0 
L 2931 0 
L 2931 347 
L 2931 1625 
Q 2931 2084 2911 2256 
Q 2891 2428 2841 2509 
Q 2775 2619 2662 2680 
Q 2550 2741 2406 2741 
Q 2056 2741 1856 2470 
Q 1656 2200 1656 1722 
L 1656 0 
L 538 0 
L 538 4863 
L 1656 4863 
L 1656 2988 
Q 1909 3294 2193 3439 
Q 2478 3584 2822 3584 
Q 3428 3584 3742 3212 
Q 4056 2841 4056 2131 
z
" transform="scale(0.015625)"/>
       <path id="DejaVuSans-Bold-72" d="M 3138 2547 
Q 2991 2616 2845 2648 
Q 2700 2681 2553 2681 
Q 2122 2681 1889 2404 
Q 1656 2128 1656 1613 
L 1656 0 
L 538 0 
L 538 3500 
L 1656 3500 
L 1656 2925 
Q 1872 3269 2151 3426 
Q 2431 3584 2822 3584 
Q 2878 3584 2943 3579 
Q 3009 3575 3134 3559 
L 3138 2547 
z
" transform="scale(0.015625)"/>
       <path id="DejaVuSans-Bold-6d" d="M 3781 2919 
Q 3994 3244 4286 3414 
Q 4578 3584 4928 3584 
Q 5531 3584 5847 3212 
Q 6163 2841 6163 2131 
L 6163 0 
L 5038 0 
L 5038 1825 
Q 5041 1866 5042 1909 
Q 5044 1953 5044 2034 
Q 5044 2406 4934 2573 
Q 4825 2741 4581 2741 
Q 4263 2741 4089 2478 
Q 3916 2216 3909 1719 
L 3909 0 
L 2784 0 
L 2784 1825 
Q 2784 2406 2684 2573 
Q 2584 2741 2328 2741 
Q 2006 2741 1831 2477 
Q 1656 2213 1656 1722 
L 1656 0 
L 531 0 
L 531 3500 
L 1656 3500 
L 1656 2988 
Q 1863 3284 2130 3434 
Q 2397 3584 2719 3584 
Q 3081 3584 3359 3409 
Q 3638 3234 3781 2919 
z
" transform="scale(0.015625)"/>
      </defs>
      <use xlink:href="#DejaVuSans-Bold-77"/>
      <use xlink:href="#DejaVuSans-Bold-65" transform="translate(92.382812 0)"/>
      <use xlink:href="#DejaVuSans-Bold-61" transform="translate(160.205078 0)"/>
      <use xlink:href="#DejaVuSans-Bold-74" transform="translate(227.685547 0)"/>
      <use xlink:href="#DejaVuSans-Bold-68" transform="translate(275.488281 0)"/>
      <use xlink:href="#DejaVuSans-Bold-65" transform="translate(346.679688 0)"/>
      <use xlink:href="#DejaVuSans-Bold-72" transform="translate(414.501953 0)"/>
      <use xlink:href="#DejaVuSans-Bold-5f" transform="translate(463.818359 0)"/>
      <use xlink:href="#DejaVuSans-Bold-6d" transform="translate(513.818359 0)"/>
      <use xlink:href="#DejaVuSans-Bold-6f" transform="translate(618.017578 0)"/>
      <use xlink:href="#DejaVuSans-Bold-6e" transform="translate(686.71875 0)"/>
      <use xlink:href="#DejaVuSans-Bold-69" transform="translate(757.910156 0)"/>
      <use xlink:href="#DejaVuSans-Bold-74" transform="translate(792.1875 0)"/>
      <use xlink:href="#DejaVuSans-Bold-6f" transform="translate(839.990234 0)"/>
      <use xlink:href="#DejaVuSans-Bold-72" transform="translate(908.691406 0)"/>
     </g>
    </g>
   </g>
   <g id="text_3">
    <g clip-path="url(#p2474d7185b)">
     <!-- stock_resources_manager -->
     <g transform="translate(462.730206 244.269254) scale(0.08 -0.08)">
      <defs>
       <path id="DejaVuSans-Bold-73" d="M 3272 3391 
L 3272 2541 
Q 2913 2691 2578 2766 
Q 2244 2841 1947 2841 
Q 1628 2841 1473 2761 
Q 1319 2681 1319 2516 
Q 1319 2381 1436 2309 
Q 1553 2238 1856 2203 
L 2053 2175 
Q 2913 2066 3209 1816 
Q 3506 1566 3506 1031 
Q 3506 472 3093 190 
Q 2681 -91 1863 -91 
Q 1516 -91 1145 -36 
Q 775 19 384 128 
L 384 978 
Q 719 816 1070 734 
Q 1422 653 1784 653 
Q 2113 653 2278 743 
Q 2444 834 2444 1013 
Q 2444 1163 2330 1236 
Q 2216 1309 1875 1350 
L 1678 1375 
Q 931 1469 631 1722 
Q 331 1975 331 2491 
Q 331 3047 712 3315 
Q 1094 3584 1881 3584 
Q 2191 3584 2531 3537 
Q 2872 3491 3272 3391 
z
" transform="scale(0.015625)"/>
       <path id="DejaVuSans-Bold-6b" d="M 538 4863 
L 1656 4863 
L 1656 2216 
L 2944 3500 
L 4244 3500 
L 2534 1894 
L 4378 0 
L 3022 0 
L 1656 1459 
L 1656 0 
L 538 0 
L 538 4863 
z
" transform="scale(0.015625)"/>
       <path id="DejaVuSans-Bold-75" d="M 500 1363 
L 500 3500 
L 1625 3500 
L 1625 3150 
Q 1625 2866 1622 2436 
Q 1619 2006 1619 1863 
Q 1619 1441 1641 1255 
Q 1663 1069 1716 984 
Q 1784 875 1895 815 
Q 2006 756 2150 756 
Q 2500 756 2700 1025 
Q 2900 1294 2900 1772 
L 2900 3500 
L 4019 3500 
L 4019 0 
L 2900 0 
L 2900 506 
Q 2647 200 2364 54 
Q 2081 -91 1741 -91 
Q 1134 -91 817 281 
Q 500 653 500 1363 
z
" transform="scale(0.015625)"/>
      </defs>
      <use xlink:href="#DejaVuSans-Bold-73"/>
      <use xlink:href="#DejaVuSans-Bold-74" transform="translate(59.521484 0)"/>
      <use xlink:href="#DejaVuSans-Bold-6f" transform="translate(107.324219 0)"/>
      <use xlink:href="#DejaVuSans-Bold-63" transform="translate(176.025391 0)"/>
      <use xlink:href="#DejaVuSans-Bold-6b" transform="translate(235.302734 0)"/>
      <use xlink:href="#DejaVuSans-Bold-5f" transform="translate(301.806641 0)"/>
      <use xlink:href="#DejaVuSans-Bold-72" transform="translate(351.806641 0)"/>
      <use xlink:href="#DejaVuSans-Bold-65" transform="translate(401.123047 0)"/>
      <use xlink:href="#DejaVuSans-Bold-73" transform="translate(468.945312 0)"/>
      <use xlink:href="#DejaVuSans-Bold-6f" transform="translate(528.466797 0)"/>
      <use xlink:href="#DejaVuSans-Bold-75" transform="translate(597.167969 0)"/>
      <use xlink:href="#DejaVuSans-Bold-72" transform="translate(668.359375 0)"/>
      <use xlink:href="#DejaVuSans-Bold-63" transform="translate(717.675781 0)"/>
      <use xlink:href="#DejaVuSans-Bold-65" transform="translate(776.953125 0)"/>
      <use xlink:href="#DejaVuSans-Bold-73" transform="translate(844.775391 0)"/>
      <use xlink:href="#DejaVuSans-Bold-5f" transform="translate(904.296875 0)"/>
      <use xlink:href="#DejaVuSans-Bold-6d" transform="translate(954.296875 0)"/>
      <use xlink:href="#DejaVuSans-Bold-61" transform="translate(1058.496094 0)"/>
      <use xlink:href="#DejaVuSans-Bold-6e" transform="translate(1125.976562 0)"/>
      <use xlink:href="#DejaVuSans-Bold-61" transform="translate(1197.167969 0)"/>
      <use xlink:href="#DejaVuSans-Bold-67" transform="translate(1264.648438 0)"/>
      <use xlink:href="#DejaVuSans-Bold-65" transform="translate(1336.230469 0)"/>
      <use xlink:href="#DejaVuSans-Bold-72" transform="translate(1404.052734 0)"/>
     </g>
    </g>
   </g>
   <g id="text_4">
    <g clip-path="url(#p2474d7185b)">
     <!-- route_optimizer -->
     <g transform="translate(73.705326 84.486845) scale(0.08 -0.08)">
      <defs>
       <path id="DejaVuSans-Bold-7a" d="M 366 3500 
L 3419 3500 
L 3419 2719 
L 1575 800 
L 3419 800 
L 3419 0 
L 288 0 
L 288 781 
L 2131 2700 
L 366 2700 
L 366 3500 
z
" transform="scale(0.015625)"/>
      </defs>
      <use xlink:href="#DejaVuSans-Bold-72"/>
      <use xlink:href="#DejaVuSans-Bold-6f" transform="translate(49.316406 0)"/>
      <use xlink:href="#DejaVuSans-Bold-75" transform="translate(118.017578 0)"/>
      <use xlink:href="#DejaVuSans-Bold-74" transform="translate(189.208984 0)"/>
      <use xlink:href="#DejaVuSans-Bold-65" transform="translate(237.011719 0)"/>
      <use xlink:href="#DejaVuSans-Bold-5f" transform="translate(304.833984 0)"/>
      <use xlink:href="#DejaVuSans-Bold-6f" transform="translate(354.833984 0)"/>
      <use xlink:href="#DejaVuSans-Bold-70" transform="translate(423.535156 0)"/>
      <use xlink:href="#DejaVuSans-Bold-74" transform="translate(495.117188 0)"/>
      <use xlink:href="#DejaVuSans-Bold-69" transform="translate(542.919922 0)"/>
      <use xlink:href="#DejaVuSans-Bold-6d" transform="translate(577.197266 0)"/>
      <use xlink:href="#DejaVuSans-Bold-69" transform="translate(681.396484 0)"/>
      <use xlink:href="#DejaVuSans-Bold-7a" transform="translate(715.673828 0)"/>
      <use xlink:href="#DejaVuSans-Bold-65" transform="translate(773.876953 0)"/>
      <use xlink:href="#DejaVuSans-Bold-72" transform="translate(841.699219 0)"/>
     </g>
    </g>
   </g>
   <g id="text_5">
    <g clip-path="url(#p2474d7185b)">
     <!-- notifications_alerts_manager -->
     <g transform="translate(92.495876 401.81047) scale(0.08 -0.08)">
      <use xlink:href="#DejaVuSans-Bold-6e"/>
      <use xlink:href="#DejaVuSans-Bold-6f" transform="translate(71.191406 0)"/>
      <use xlink:href="#DejaVuSans-Bold-74" transform="translate(139.892578 0)"/>
      <use xlink:href="#DejaVuSans-Bold-69" transform="translate(187.695312 0)"/>
      <use xlink:href="#DejaVuSans-Bold-66" transform="translate(221.972656 0)"/>
      <use xlink:href="#DejaVuSans-Bold-69" transform="translate(265.478516 0)"/>
      <use xlink:href="#DejaVuSans-Bold-63" transform="translate(299.755859 0)"/>
      <use xlink:href="#DejaVuSans-Bold-61" transform="translate(359.033203 0)"/>
      <use xlink:href="#DejaVuSans-Bold-74" transform="translate(426.513672 0)"/>
      <use xlink:href="#DejaVuSans-Bold-69" transform="translate(474.316406 0)"/>
      <use xlink:href="#DejaVuSans-Bold-6f" transform="translate(508.59375 0)"/>
      <use xlink:href="#DejaVuSans-Bold-6e" transform="translate(577.294922 0)"/>
      <use xlink:href="#DejaVuSans-Bold-73" transform="translate(648.486328 0)"/>
      <use xlink:href="#DejaVuSans-Bold-5f" transform="translate(708.007812 0)"/>
      <use xlink:href="#DejaVuSans-Bold-61" transform="translate(758.007812 0)"/>
      <use xlink:href="#DejaVuSans-Bold-6c" transform="translate(825.488281 0)"/>
      <use xlink:href="#DejaVuSans-Bold-65" transform="translate(859.765625 0)"/>
      <use xlink:href="#DejaVuSans-Bold-72" transform="translate(927.587891 0)"/>
      <use xlink:href="#DejaVuSans-Bold-74" transform="translate(976.904297 0)"/>
      <use xlink:href="#DejaVuSans-Bold-73" transform="translate(1024.707031 0)"/>
      <use xlink:href="#DejaVuSans-Bold-5f" transform="translate(1084.228516 0)"/>
      <use xlink:href="#DejaVuSans-Bold-6d" transform="translate(1134.228516 0)"/>
      <use xlink:href="#DejaVuSans-Bold-61" transform="translate(1238.427734 0)"/>
      <use xlink:href="#DejaVuSans-Bold-6e" transform="translate(1305.908203 0)"/>
      <use xlink:href="#DejaVuSans-Bold-61" transform="translate(1377.099609 0)"/>
      <use xlink:href="#DejaVuSans-Bold-67" transform="translate(1444.580078 0)"/>
      <use xlink:href="#DejaVuSans-Bold-65" transform="translate(1516.162109 0)"/>
      <use xlink:href="#DejaVuSans-Bold-72" transform="translate(1583.984375 0)"/>
     </g>
    </g>
   </g>
   <g id="text_6">
    <g clip-path="url(#p2474d7185b)">
     <!-- weather_data_collection -->
     <g transform="translate(376.552397 180.915329) scale(0.08 -0.08)">
      <defs>
       <path id="DejaVuSans-Bold-64" d="M 2919 2988 
L 2919 4863 
L 4044 4863 
L 4044 0 
L 2919 0 
L 2919 506 
Q 2688 197 2409 53 
Q 2131 -91 1766 -91 
Q 1119 -91 703 423 
Q 288 938 288 1747 
Q 288 2556 703 3070 
Q 1119 3584 1766 3584 
Q 2128 3584 2408 3439 
Q 2688 3294 2919 2988 
z
M 2181 722 
Q 2541 722 2730 984 
Q 2919 1247 2919 1747 
Q 2919 2247 2730 2509 
Q 2541 2772 2181 2772 
Q 1825 2772 1636 2509 
Q 1447 2247 1447 1747 
Q 1447 1247 1636 984 
Q 1825 722 2181 722 
z
" transform="scale(0.015625)"/>
      </defs>
      <use xlink:href="#DejaVuSans-Bold-77"/>
      <use xlink:href="#DejaVuSans-Bold-65" transform="translate(92.382812 0)"/>
      <use xlink:href="#DejaVuSans-Bold-61" transform="translate(160.205078 0)"/>
      <use xlink:href="#DejaVuSans-Bold-74" transform="translate(227.685547 0)"/>
      <use xlink:href="#DejaVuSans-Bold-68" transform="translate(275.488281 0)"/>
      <use xlink:href="#DejaVuSans-Bold-65" transform="translate(346.679688 0)"/>
      <use xlink:href="#DejaVuSans-Bold-72" transform="translate(414.501953 0)"/>
      <use xlink:href="#DejaVuSans-Bold-5f" transform="translate(463.818359 0)"/>
      <use xlink:href="#DejaVuSans-Bold-64" transform="translate(513.818359 0)"/>
      <use xlink:href="#DejaVuSans-Bold-61" transform="translate(585.400391 0)"/>
      <use xlink:href="#DejaVuSans-Bold-74" transform="translate(652.880859 0)"/>
      <use xlink:href="#DejaVuSans-Bold-61" transform="translate(700.683594 0)"/>
      <use xlink:href="#DejaVuSans-Bold-5f" transform="translate(768.164062 0)"/>
      <use xlink:href="#DejaVuSans-Bold-63" transform="translate(818.164062 0)"/>
      <use xlink:href="#DejaVuSans-Bold-6f" transform="translate(877.441406 0)"/>
      <use xlink:href="#DejaVuSans-Bold-6c" transform="translate(946.142578 0)"/>
      <use xlink:href="#DejaVuSans-Bold-6c" transform="translate(980.419922 0)"/>
      <use xlink:href="#DejaVuSans-Bold-65" transform="translate(1014.697266 0)"/>
      <use xlink:href="#DejaVuSans-Bold-63" transform="translate(1082.519531 0)"/>
      <use xlink:href="#DejaVuSans-Bold-74" transform="translate(1141.796875 0)"/>
      <use xlink:href="#DejaVuSans-Bold-69" transform="translate(1189.599609 0)"/>
      <use xlink:href="#DejaVuSans-Bold-6f" transform="translate(1223.876953 0)"/>
      <use xlink:href="#DejaVuSans-Bold-6e" transform="translate(1292.578125 0)"/>
     </g>
    </g>
   </g>
   <g id="text_7">
    <g clip-path="url(#p2474d7185b)">
     <!-- traffic_data_integration -->
     <g transform="translate(505.124922 349.498824) scale(0.08 -0.08)">
      <use xlink:href="#DejaVuSans-Bold-74"/>
      <use xlink:href="#DejaVuSans-Bold-72" transform="translate(47.802734 0)"/>
      <use xlink:href="#DejaVuSans-Bold-61" transform="translate(97.119141 0)"/>
      <use xlink:href="#DejaVuSans-Bold-66" transform="translate(164.599609 0)"/>
      <use xlink:href="#DejaVuSans-Bold-66" transform="translate(208.105469 0)"/>
      <use xlink:href="#DejaVuSans-Bold-69" transform="translate(251.611328 0)"/>
      <use xlink:href="#DejaVuSans-Bold-63" transform="translate(285.888672 0)"/>
      <use xlink:href="#DejaVuSans-Bold-5f" transform="translate(345.166016 0)"/>
      <use xlink:href="#DejaVuSans-Bold-64" transform="translate(395.166016 0)"/>
      <use xlink:href="#DejaVuSans-Bold-61" transform="translate(466.748047 0)"/>
      <use xlink:href="#DejaVuSans-Bold-74" transform="translate(534.228516 0)"/>
      <use xlink:href="#DejaVuSans-Bold-61" transform="translate(582.03125 0)"/>
      <use xlink:href="#DejaVuSans-Bold-5f" transform="translate(649.511719 0)"/>
      <use xlink:href="#DejaVuSans-Bold-69" transform="translate(699.511719 0)"/>
      <use xlink:href="#DejaVuSans-Bold-6e" transform="translate(733.789062 0)"/>
      <use xlink:href="#DejaVuSans-Bold-74" transform="translate(804.980469 0)"/>
      <use xlink:href="#DejaVuSans-Bold-65" transform="translate(852.783203 0)"/>
      <use xlink:href="#DejaVuSans-Bold-67" transform="translate(920.605469 0)"/>
      <use xlink:href="#DejaVuSans-Bold-72" transform="translate(992.1875 0)"/>
      <use xlink:href="#DejaVuSans-Bold-61" transform="translate(1041.503906 0)"/>
      <use xlink:href="#DejaVuSans-Bold-74" transform="translate(1108.984375 0)"/>
      <use xlink:href="#DejaVuSans-Bold-69" transform="translate(1156.787109 0)"/>
      <use xlink:href="#DejaVuSans-Bold-6f" transform="translate(1191.064453 0)"/>
      <use xlink:href="#DejaVuSans-Bold-6e" transform="translate(1259.765625 0)"/>
     </g>
    </g>
   </g>
   <g id="text_8">
    <g clip-path="url(#p2474d7185b)">
     <!-- resource_monitoring -->
     <g transform="translate(530.972055 416.076755) scale(0.08 -0.08)">
      <use xlink:href="#DejaVuSans-Bold-72"/>
      <use xlink:href="#DejaVuSans-Bold-65" transform="translate(49.316406 0)"/>
      <use xlink:href="#DejaVuSans-Bold-73" transform="translate(117.138672 0)"/>
      <use xlink:href="#DejaVuSans-Bold-6f" transform="translate(176.660156 0)"/>
      <use xlink:href="#DejaVuSans-Bold-75" transform="translate(245.361328 0)"/>
      <use xlink:href="#DejaVuSans-Bold-72" transform="translate(316.552734 0)"/>
      <use xlink:href="#DejaVuSans-Bold-63" transform="translate(365.869141 0)"/>
      <use xlink:href="#DejaVuSans-Bold-65" transform="translate(425.146484 0)"/>
      <use xlink:href="#DejaVuSans-Bold-5f" transform="translate(492.96875 0)"/>
      <use xlink:href="#DejaVuSans-Bold-6d" transform="translate(542.96875 0)"/>
      <use xlink:href="#DejaVuSans-Bold-6f" transform="translate(647.167969 0)"/>
      <use xlink:href="#DejaVuSans-Bold-6e" transform="translate(715.869141 0)"/>
      <use xlink:href="#DejaVuSans-Bold-69" transform="translate(787.060547 0)"/>
      <use xlink:href="#DejaVuSans-Bold-74" transform="translate(821.337891 0)"/>
      <use xlink:href="#DejaVuSans-Bold-6f" transform="translate(869.140625 0)"/>
      <use xlink:href="#DejaVuSans-Bold-72" transform="translate(937.841797 0)"/>
      <use xlink:href="#DejaVuSans-Bold-69" transform="translate(987.158203 0)"/>
      <use xlink:href="#DejaVuSans-Bold-6e" transform="translate(1021.435547 0)"/>
      <use xlink:href="#DejaVuSans-Bold-67" transform="translate(1092.626953 0)"/>
     </g>
    </g>
   </g>
   <g id="text_9">
    <g clip-path="url(#p2474d7185b)">
     <!-- route_optimization -->
     <g transform="translate(20.812944 204.656996) scale(0.08 -0.08)">
      <use xlink:href="#DejaVuSans-Bold-72"/>
      <use xlink:href="#DejaVuSans-Bold-6f" transform="translate(49.316406 0)"/>
      <use xlink:href="#DejaVuSans-Bold-75" transform="translate(118.017578 0)"/>
      <use xlink:href="#DejaVuSans-Bold-74" transform="translate(189.208984 0)"/>
      <use xlink:href="#DejaVuSans-Bold-65" transform="translate(237.011719 0)"/>
      <use xlink:href="#DejaVuSans-Bold-5f" transform="translate(304.833984 0)"/>
      <use xlink:href="#DejaVuSans-Bold-6f" transform="translate(354.833984 0)"/>
      <use xlink:href="#DejaVuSans-Bold-70" transform="translate(423.535156 0)"/>
      <use xlink:href="#DejaVuSans-Bold-74" transform="translate(495.117188 0)"/>
      <use xlink:href="#DejaVuSans-Bold-69" transform="translate(542.919922 0)"/>
      <use xlink:href="#DejaVuSans-Bold-6d" transform="translate(577.197266 0)"/>
      <use xlink:href="#DejaVuSans-Bold-69" transform="translate(681.396484 0)"/>
      <use xlink:href="#DejaVuSans-Bold-7a" transform="translate(715.673828 0)"/>
      <use xlink:href="#DejaVuSans-Bold-61" transform="translate(773.876953 0)"/>
      <use xlink:href="#DejaVuSans-Bold-74" transform="translate(841.357422 0)"/>
      <use xlink:href="#DejaVuSans-Bold-69" transform="translate(889.160156 0)"/>
      <use xlink:href="#DejaVuSans-Bold-6f" transform="translate(923.4375 0)"/>
      <use xlink:href="#DejaVuSans-Bold-6e" transform="translate(992.138672 0)"/>
     </g>
    </g>
   </g>
   <g id="text_10">
    <g clip-path="url(#p2474d7185b)">
     <!-- stakeholder_communication -->
     <g transform="translate(234.0644 410.406314) scale(0.08 -0.08)">
      <use xlink:href="#DejaVuSans-Bold-73"/>
      <use xlink:href="#DejaVuSans-Bold-74" transform="translate(59.521484 0)"/>
      <use xlink:href="#DejaVuSans-Bold-61" transform="translate(107.324219 0)"/>
      <use xlink:href="#DejaVuSans-Bold-6b" transform="translate(174.804688 0)"/>
      <use xlink:href="#DejaVuSans-Bold-65" transform="translate(238.683594 0)"/>
      <use xlink:href="#DejaVuSans-Bold-68" transform="translate(306.505859 0)"/>
      <use xlink:href="#DejaVuSans-Bold-6f" transform="translate(377.697266 0)"/>
      <use xlink:href="#DejaVuSans-Bold-6c" transform="translate(446.398438 0)"/>
      <use xlink:href="#DejaVuSans-Bold-64" transform="translate(480.675781 0)"/>
      <use xlink:href="#DejaVuSans-Bold-65" transform="translate(552.257812 0)"/>
      <use xlink:href="#DejaVuSans-Bold-72" transform="translate(620.080078 0)"/>
      <use xlink:href="#DejaVuSans-Bold-5f" transform="translate(669.396484 0)"/>
      <use xlink:href="#DejaVuSans-Bold-63" transform="translate(719.396484 0)"/>
      <use xlink:href="#DejaVuSans-Bold-6f" transform="translate(778.673828 0)"/>
      <use xlink:href="#DejaVuSans-Bold-6d" transform="translate(847.375 0)"/>
      <use xlink:href="#DejaVuSans-Bold-6d" transform="translate(951.574219 0)"/>
      <use xlink:href="#DejaVuSans-Bold-75" transform="translate(1055.773438 0)"/>
      <use xlink:href="#DejaVuSans-Bold-6e" transform="translate(1126.964844 0)"/>
      <use xlink:href="#DejaVuSans-Bold-69" transform="translate(1198.15625 0)"/>
      <use xlink:href="#DejaVuSans-Bold-63" transform="translate(1232.433594 0)"/>
      <use xlink:href="#DejaVuSans-Bold-61" transform="translate(1291.710938 0)"/>
      <use xlink:href="#DejaVuSans-Bold-74" transform="translate(1359.191406 0)"/>
      <use xlink:href="#DejaVuSans-Bold-69" transform="translate(1406.994141 0)"/>
      <use xlink:href="#DejaVuSans-Bold-6f" transform="translate(1441.271484 0)"/>
      <use xlink:href="#DejaVuSans-Bold-6e" transform="translate(1509.972656 0)"/>
     </g>
    </g>
   </g>
  </g>
 </g>
 <defs>
  <clipPath id="p2474d7185b">
   <rect x="7.2" y="7.2" width="669.6" height="443.52"/>
  </clipPath>
 </defs>
</svg>
