<?xml version="1.0" encoding="utf-8"?>
<svg width="800" height="600" xmlns="http://www.w3.org/2000/svg">
  <defs>
    <marker id="arrow" viewBox="0 0 10 10" refX="9" refY="5" markerWidth="6" markerHeight="6" orient="auto">
      <path d="M 0 0 L 10 5 L 0 10 z" fill="#666"/>
    </marker>
  </defs>
  <rect width="800" height="599.677" fill="#f8f9fa" style="" y="0.323" transform="matrix(1, 0, 0.00189, 1, -0.567347, 0)"/>
  <text x="400" y="40" text-anchor="middle" font-family="Arial" font-size="20" font-weight="bold" style="white-space: pre;">
        Snow Removal Optimization System Flow
    </text>
  <rect x="300" y="60" width="200" height="60" rx="10" fill="#007bff" opacity="0.8"/>
  <text x="400" y="95" text-anchor="middle" font-family="Arial" font-size="14" fill="white" style="white-space: pre;">
        Global Planification
        <tspan x="400" dy="20">Coordinator</tspan>
    </text>
  <rect x="50" y="180" width="160" height="60" rx="10" fill="#28a745" opacity="0.8"/>
  <text x="130" y="215" text-anchor="middle" font-family="Arial" font-size="14" fill="white" style="white-space: pre;">
        Weather Monitoring
        <tspan x="130" dy="20">Specialist</tspan>
    </text>
  <rect x="230" y="180" width="160" height="60" rx="10" fill="#dc3545" opacity="0.8"/>
  <text x="310" y="215" text-anchor="middle" font-family="Arial" font-size="14" fill="white" style="white-space: pre;">
        Stock and Resources
        <tspan x="310" dy="20">Manager</tspan>
    </text>
  <rect x="410" y="180" width="160" height="60" rx="10" fill="#ffc107" opacity="0.8"/>
  <text x="490" y="215" text-anchor="middle" font-family="Arial" font-size="14" fill="white" style="white-space: pre;">
        Route Optimization
        <tspan x="490" dy="20">Expert</tspan>
    </text>
  <rect x="590" y="180" width="160" height="60" rx="10" fill="#17a2b8" opacity="0.8"/>
  <text x="670" y="215" text-anchor="middle" font-family="Arial" font-size="14" fill="white" style="white-space: pre;">
        Notifications and
        <tspan x="670" dy="20">Alerts Manager</tspan>
    </text>
  <rect x="50" y="320" width="160" height="50" rx="5" fill="#f8f9fa" stroke="#28a745"/>
  <text x="130" y="350" text-anchor="middle" font-family="Arial" font-size="12" style="white-space: pre;">Weather Data Collection</text>
  <rect x="230" y="320" width="160" height="50" rx="5" fill="#f8f9fa" stroke="#dc3545"/>
  <text x="310" y="350" text-anchor="middle" font-family="Arial" font-size="12" style="white-space: pre;">Resource Monitoring</text>
  <rect x="410" y="320" width="160" height="50" rx="5" fill="#f8f9fa" stroke="#ffc107"/>
  <text x="490" y="350" text-anchor="middle" font-family="Arial" font-size="12" style="white-space: pre;">Route Optimization</text>
  <rect x="590" y="320" width="160" height="50" rx="5" fill="#f8f9fa" stroke="#17a2b8"/>
  <text x="670" y="350" text-anchor="middle" font-family="Arial" font-size="12" style="white-space: pre;">Stakeholder Communication</text>
  <line x1="400" y1="120" x2="130" y2="180" stroke="#666" stroke-width="2" marker-end="url(#arrow)"/>
  <line x1="400" y1="120" x2="310" y2="180" stroke="#666" stroke-width="2" marker-end="url(#arrow)"/>
  <line x1="400" y1="120" x2="490" y2="180" stroke="#666" stroke-width="2" marker-end="url(#arrow)"/>
  <line x1="400" y1="120" x2="670" y2="180" stroke="#666" stroke-width="2" marker-end="url(#arrow)"/>
  <line x1="130" y1="240" x2="130" y2="320" stroke="#666" stroke-width="2" marker-end="url(#arrow)"/>
  <line x1="310" y1="240" x2="310" y2="320" stroke="#666" stroke-width="2" marker-end="url(#arrow)"/>
  <line x1="490" y1="240" x2="490" y2="320" stroke="#666" stroke-width="2" marker-end="url(#arrow)"/>
  <line x1="670" y1="240" x2="670" y2="320" stroke="#666" stroke-width="2" marker-end="url(#arrow)"/>
  <path d="M 210 345 L 230 345" stroke="#666" stroke-width="2" marker-end="url(#arrow)"/>
  <path d="M 390 345 L 410 345" stroke="#666" stroke-width="2" marker-end="url(#arrow)"/>
  <path d="M 570 345 L 590 345" stroke="#666" stroke-width="2" marker-end="url(#arrow)"/>
  <rect x="50" y="420" width="714.076" height="130" rx="5" fill="white" stroke="#ddd" style=""/>
  <text x="70" y="450" font-family="Arial" font-size="14" font-weight="bold" style="white-space: pre;">Legend:</text>
  <circle cx="96.271" y="470" r="6" fill="#007bff" cy="469.857"/>
  <text x="110" y="475" font-family="Arial" font-size="12" style="white-space: pre;">Coordinator Agent - Orchestrates overall operations</text>
  <circle cx="80.816" y="495" r="6" fill="#28a745" cy="493.412"/>
  <text x="94.622" y="499.107" font-family="Arial" font-size="12" style="white-space: pre; font-size: 12px;">Weather Monitor - Provides weather forecasts and updates</text>
  <circle cx="97.781" y="520" r="6" fill="#dc3545" cy="519.225"/>
  <text x="110" y="525" font-family="Arial" font-size="12" style="white-space: pre;">Resources Manager - Manages inventory and resources</text>
  <circle cx="407.3" y="470" r="6" fill="#ffc107" cy="468.762"/>
  <text x="420" y="475" font-family="Arial" font-size="12" style="white-space: pre;">Route Optimizer - Plans and adjusts snow removal routes</text>
  <circle cx="419.513" y="495" r="6" fill="#17a2b8" cy="492.394"/>
  <text x="433.007" y="498.866" font-family="Arial" font-size="12" style="white-space: pre; font-size: 12px;">Notifications Manager - Handles stakeholder communications</text>
  <text x="567.411" y="523.967" font-family="Arial" font-size="12" style="white-space: pre; font-size: 12px;">Data/Control Flow</text>
  <line x1="448.962" y1="518.894" x2="557.179" y2="519.106" stroke="#666" stroke-width="2" marker-end="url(#arrow)" style=""/>
</svg>